<svg width="80" height="80" viewBox="0 0 30 30" fill="none" xmlns="http://www.w3.org/2000/svg">
<path fill-rule="evenodd" clip-rule="evenodd" d="M21.8723 7.25103C19.5982 6.06472 17.3018 5.47168 14.9997 5.47168C11.4059 5.47168 7.82692 6.91689 4.32313 9.80817L2.59832 11.2307C1.99018 11.7313 1.52534 12.3229 1.21253 12.9869C0.897974 13.6554 0.736328 14.3893 0.736328 15.1731C0.736328 15.9568 0.897101 16.6917 1.21253 17.3592C1.52534 18.0233 1.99018 18.6148 2.59832 19.1155L4.32313 20.538C5.75474 21.7193 7.19889 22.6593 8.65148 23.3578L9.52577 22.2927C8.06854 21.6297 6.6146 20.7016 5.16893 19.5087L3.44412 18.0862C2.99326 17.714 2.649 17.278 2.4192 16.7895C2.19027 16.3046 2.07319 15.762 2.07319 15.1731C2.07319 14.5842 2.19115 14.0416 2.4192 13.5566C2.649 13.0682 2.99326 12.6322 3.44412 12.26L5.16893 10.8375C8.42371 8.15239 11.7187 6.80941 14.9997 6.80941C17.0003 6.80941 19.0065 7.30876 21.0053 8.30726L21.8723 7.25103ZM18.9572 10.8025C17.9109 9.85479 16.5222 9.27692 14.9997 9.27692C13.3718 9.27692 11.8969 9.93749 10.8301 11.0044C9.76319 12.0712 9.10262 13.5461 9.10262 15.174C9.10262 16.8018 9.76319 18.2767 10.8301 19.3436C11.0335 19.547 11.2519 19.7357 11.4833 19.9079L12.3329 18.8728C12.1345 18.7296 11.9481 18.5707 11.7755 18.3981C10.9506 17.5733 10.4404 16.433 10.4404 15.174C10.4404 13.9149 10.9506 12.7746 11.7755 11.9498C12.6003 11.1249 13.7406 10.6147 14.9997 10.6147C16.2006 10.6147 17.2935 11.0789 18.1076 11.8375L18.9572 10.8025ZM19.4894 14.3761L20.5262 13.113C20.7657 13.7546 20.8967 14.4491 20.8967 15.174C20.8967 16.8018 20.2361 18.2767 19.1693 19.3436C18.1024 20.4104 16.6275 21.071 14.9997 21.071C14.6784 21.071 14.3632 21.0453 14.0558 20.9958L15.0929 19.7323C16.315 19.7078 17.4194 19.2026 18.2238 18.3981C19.0487 17.5733 19.559 16.433 19.559 15.174C19.559 14.9018 19.5351 14.6352 19.4894 14.3761ZM12.2313 23.2186C13.1544 23.4307 14.0776 23.5368 14.9997 23.5368C18.2806 23.5368 21.5756 22.1938 24.8304 19.5087L26.5552 18.0862C27.006 17.714 27.3503 17.278 27.5801 16.7895C27.8082 16.3046 27.9261 15.762 27.9261 15.1731C27.9261 14.5842 27.809 14.0416 27.5801 13.5566C27.3503 13.0682 27.006 12.6322 26.5552 12.26L24.8304 10.8375C24.3313 10.4256 23.8312 10.0454 23.3304 9.69669L24.1786 8.66334C24.6792 9.01576 25.1785 9.39737 25.6762 9.80817L27.401 11.2307C28.0091 11.7313 28.474 12.3229 28.7868 12.9869C29.1022 13.6545 29.263 14.3893 29.263 15.1731C29.263 15.9568 29.1013 16.6908 28.7868 17.3592C28.474 18.0233 28.0091 18.6148 27.401 19.1155L25.6762 20.538C22.1733 23.4293 18.5934 24.8745 14.9997 24.8745C13.7619 24.8745 12.526 24.7031 11.2943 24.3602L12.2313 23.2186Z" fill="#8B8B8B"/>
<rect x="24.2822" y="2.80078" width="1.36409" height="30.4453" rx="0.682044" transform="rotate(39.3799 24.2822 2.80078)" fill="#8B8B8B"/>
</svg>
