<svg width="30" height="21" viewBox="0 0 30 21" fill="none" xmlns="http://www.w3.org/2000/svg">
<path d="M24.9626 14.6377L26.7449 13.1678C27.2108 12.7832 27.5665 12.3327 27.804 11.8279C28.0397 11.3268 28.1616 10.7661 28.1616 10.1576C28.1616 9.54905 28.0406 8.98835 27.804 8.48725C27.5665 7.98253 27.2108 7.53199 26.7449 7.14736L24.9626 5.67746C21.6003 2.90288 18.1946 1.51514 14.8042 1.51514C11.4139 1.51514 8.00905 2.90288 4.64579 5.67746L2.86348 7.14736C2.39759 7.53199 2.04186 7.98253 1.8044 8.48725C1.56874 8.98835 1.44685 9.54905 1.44685 10.1576C1.44685 10.7661 1.56784 11.3268 1.8044 11.8279C2.04186 12.3327 2.39759 12.7832 2.86348 13.1678L4.64579 14.6377C8.00815 17.4123 11.4139 18.8001 14.8042 18.8001C18.1946 18.8001 21.5993 17.4123 24.9626 14.6377ZM14.8042 14.8698C16.1053 14.8698 17.2835 14.3425 18.1359 13.4902C18.9882 12.6378 19.5155 11.4596 19.5155 10.1585C19.5155 8.85743 18.9882 7.67916 18.1359 6.82684C17.2835 5.97451 16.1053 5.44722 14.8042 5.44722C13.5031 5.44722 12.3249 5.97451 11.4725 6.82684C10.6202 7.67916 10.0929 8.85743 10.0929 10.1585C10.0929 11.4596 10.6202 12.6378 11.4725 13.4902C12.3249 14.3425 13.5031 14.8698 14.8042 14.8698ZM19.1128 14.4671C18.0104 15.5695 16.4863 16.2521 14.8042 16.2521C13.1221 16.2521 11.598 15.5695 10.4956 14.4671C9.39318 13.3647 8.7106 11.8406 8.7106 10.1585C8.7106 8.47641 9.39318 6.95234 10.4956 5.84991C11.598 4.74748 13.1221 4.0649 14.8042 4.0649C16.4863 4.0649 18.0104 4.74748 19.1128 5.84991C20.2152 6.95234 20.8978 8.47641 20.8978 10.1585C20.8978 11.8406 20.2152 13.3647 19.1128 14.4671ZM27.6189 14.2314L25.8366 15.7013C22.2169 18.689 18.5178 20.1824 14.8042 20.1824C11.0906 20.1824 7.39238 18.689 3.77179 15.7013L1.98949 14.2314C1.36108 13.7141 0.880739 13.1028 0.557505 12.4166C0.231561 11.7268 0.0654297 10.9675 0.0654297 10.1576C0.0654297 9.3477 0.232464 8.58928 0.557505 7.89857C0.880739 7.21237 1.36108 6.60111 1.98949 6.08376L3.77179 4.61385C7.39238 1.62619 11.0906 0.132812 14.8042 0.132812C18.5178 0.132812 22.2169 1.62619 25.8366 4.61385L27.6189 6.08376C28.2473 6.60111 28.7277 7.21237 29.0509 7.89857C29.3768 8.58837 29.543 9.3477 29.543 10.1576C29.543 10.9675 29.3759 11.7259 29.0509 12.4166C28.7277 13.1028 28.2473 13.7141 27.6189 14.2314Z" fill="#8B8B8B"/>
</svg>
