<svg width="17" height="10" viewBox="0 0 17 10" fill="none" xmlns="http://www.w3.org/2000/svg">
<path d="M0.847628 1.18895C0.61073 1.4257 0.477539 1.74678 0.477539 2.08167C0.477539 2.41655 0.61073 2.73765 0.847628 2.97438L7.39624 9.52074C7.63269 9.7569 7.9535 9.88965 8.28778 9.88965C8.62207 9.88965 8.94287 9.7569 9.17933 9.52074L15.7279 2.97213C16.0426 2.65279 16.164 2.19045 16.0471 1.75756C15.9301 1.32485 15.5923 0.986588 15.1597 0.86909C14.727 0.751595 14.2644 0.872611 13.9447 1.18681L8.28793 6.84582L2.63117 1.18906C2.39457 0.952898 2.07391 0.82015 1.73963 0.82015C1.40519 0.82015 1.08454 0.952902 0.847928 1.18906L0.847628 1.18895Z" fill="#181818"/>
</svg>
