<svg width="30" height="23" viewBox="0 0 30 23" fill="none" xmlns="http://www.w3.org/2000/svg">
<path d="M2.80451 0.961426C1.26139 0.961426 -0.00292969 2.22575 -0.00292969 3.76887V19.9113C-0.00292969 21.4544 1.26139 22.7188 2.80451 22.7188H26.6672C28.2104 22.7188 29.4747 21.4544 29.4747 19.9113V3.76887C29.4747 2.22575 28.2104 0.961426 26.6672 0.961426H2.80451ZM2.80451 2.36499H26.6672C27.4569 2.36499 28.0708 2.97891 28.0708 3.76856V19.911C28.0708 20.7007 27.4569 21.3146 26.6672 21.3146H2.80451C2.01481 21.3146 1.40095 20.7006 1.40095 19.911V3.76856C1.40095 2.97885 2.01487 2.36499 2.80451 2.36499ZM4.19736 5.16141H4.19712C3.92296 5.19176 3.69188 5.38 3.6067 5.64265C3.52151 5.90506 3.59813 6.19317 3.80228 6.37871L9.36233 11.6536L3.79156 17.3123C3.65595 17.4435 3.57909 17.6239 3.57812 17.8126C3.57738 18.0013 3.65229 18.1825 3.78667 18.3151C3.92081 18.4478 4.10269 18.521 4.29142 18.5178C4.4799 18.5149 4.65957 18.4361 4.78931 18.2992L10.3821 12.6188L12.8165 14.9217C13.8828 15.9325 15.5662 15.9305 16.6327 14.9217L19.0781 12.6078L24.6819 18.2992H24.6824C24.8121 18.4361 24.9918 18.5149 25.1803 18.5178C25.369 18.521 25.5509 18.4478 25.685 18.3151C25.8194 18.1825 25.8943 18.0013 25.8936 17.8126C25.8926 17.6239 25.8158 17.4435 25.6801 17.3123L20.0983 11.6426L25.6691 6.37871H25.6694C25.9509 6.11214 25.9631 5.66784 25.6968 5.38635C25.4302 5.10461 24.9859 5.09237 24.7042 5.35894L15.6679 13.9014C15.1086 14.4306 14.3507 14.4414 13.7926 13.9122L4.76763 5.35843C4.61685 5.21009 4.40755 5.13764 4.19728 5.16113L4.19736 5.16141Z" fill="#8B8B8B"/>
</svg>
